<svg viewBox="0 0 720 380" xmlns="http://www.w3.org/2000/svg" font-family="-apple-system, Segoe UI, sans-serif" role="img"><line x1="70.0" y1="195.0" x2="600.0" y2="195.0" stroke="#3a4653" stroke-width="1.2"/><line x1="330.0" y1="35.0" x2="330.0" y2="355.0" stroke="#3a4653" stroke-width="1.2"/><text x="604.0" y="199.0" fill="#9aa6b6" font-size="12" text-anchor="start" font-weight="400">erreur d'angle δθ</text><text x="338.0" y="44.0" fill="#9aa6b6" font-size="12" text-anchor="start" font-weight="400">erreur de vitesse δω</text><circle cx="246.23" cy="223.98" r="2.00" fill="#b98bf5" opacity="0.50"/><circle cx="293.97" cy="285.99" r="2.00" fill="#b98bf5" opacity="0.50"/><circle cx="342.56" cy="206.58" r="2.00" fill="#b98bf5" opacity="0.50"/><circle cx="293.79" cy="207.89" r="2.00" fill="#b98bf5" opacity="0.50"/><circle cx="295.21" cy="219.20" r="2.00" fill="#b98bf5" opacity="0.50"/><circle cx="380.09" cy="216.10" r="2.00" fill="#b98bf5" opacity="0.50"/><circle cx="356.56" cy="221.58" r="2.00" fill="#b98bf5" opacity="0.50"/><circle cx="395.24" cy="131.79" r="2.00" fill="#b98bf5" opacity="0.50"/><circle cx="410.67" cy="182.10" r="2.00" fill="#b98bf5" opacity="0.50"/><circle cx="334.24" cy="145.23" r="2.00" fill="#b98bf5" opacity="0.50"/><circle cx="275.23" cy="153.90" r="2.00" fill="#b98bf5" opacity="0.50"/><circle cx="441.66" cy="172.87" r="2.00" fill="#b98bf5" opacity="0.50"/><circle cx="287.70" cy="195.32" r="2.00" fill="#b98bf5" opacity="0.50"/><circle cx="376.35" cy="205.61" r="2.00" fill="#b98bf5" opacity="0.50"/><circle cx="183.91" cy="263.51" r="2.00" fill="#b98bf5" opacity="0.50"/><circle cx="350.60" cy="139.81" r="2.00" fill="#b98bf5" opacity="0.50"/><circle cx="273.27" cy="260.92" r="2.00" fill="#b98bf5" opacity="0.50"/><circle cx="220.57" cy="263.13" r="2.00" fill="#b98bf5" opacity="0.50"/><circle cx="335.58" cy="199.96" r="2.00" fill="#b98bf5" opacity="0.50"/><circle cx="337.55" cy="110.05" r="2.00" fill="#b98bf5" opacity="0.50"/><circle cx="309.05" cy="211.11" r="2.00" fill="#b98bf5" opacity="0.50"/><circle cx="288.09" cy="244.84" r="2.00" fill="#b98bf5" opacity="0.50"/><circle cx="397.74" cy="141.75" r="2.00" fill="#b98bf5" opacity="0.50"/><circle cx="320.35" cy="136.56" r="2.00" fill="#b98bf5" opacity="0.50"/><circle cx="403.06" cy="117.35" r="2.00" fill="#b98bf5" opacity="0.50"/><circle cx="341.33" cy="175.77" r="2.00" fill="#b98bf5" opacity="0.50"/><circle cx="485.14" cy="90.50" r="2.00" fill="#b98bf5" opacity="0.50"/><circle cx="385.11" cy="141.52" r="2.00" fill="#b98bf5" opacity="0.50"/><circle cx="418.83" cy="162.13" r="2.00" fill="#b98bf5" opacity="0.50"/><circle cx="434.56" cy="162.82" r="2.00" fill="#b98bf5" opacity="0.50"/><circle cx="433.29" cy="104.12" r="2.00" fill="#b98bf5" opacity="0.50"/><circle cx="266.15" cy="203.72" r="2.00" fill="#b98bf5" opacity="0.50"/><circle cx="458.08" cy="196.31" r="2.00" fill="#b98bf5" opacity="0.50"/><circle cx="432.78" cy="116.40" r="2.00" fill="#b98bf5" opacity="0.50"/><circle cx="322.64" cy="214.68" r="2.00" fill="#b98bf5" opacity="0.50"/><circle cx="382.12" cy="186.63" r="2.00" fill="#b98bf5" opacity="0.50"/><circle cx="346.93" cy="143.07" r="2.00" fill="#b98bf5" opacity="0.50"/><circle cx="304.36" cy="201.68" r="2.00" fill="#b98bf5" opacity="0.50"/><circle cx="366.07" cy="126.78" r="2.00" fill="#b98bf5" opacity="0.50"/><circle cx="288.02" cy="227.63" r="2.00" fill="#b98bf5" opacity="0.50"/><circle cx="429.24" cy="120.42" r="2.00" fill="#b98bf5" opacity="0.50"/><circle cx="354.28" cy="211.20" r="2.00" fill="#b98bf5" opacity="0.50"/><circle cx="342.25" cy="241.51" r="2.00" fill="#b98bf5" opacity="0.50"/><circle cx="313.18" cy="237.76" r="2.00" fill="#b98bf5" opacity="0.50"/><circle cx="281.20" cy="170.45" r="2.00" fill="#b98bf5" opacity="0.50"/><circle cx="212.76" cy="287.76" r="2.00" fill="#b98bf5" opacity="0.50"/><circle cx="314.16" cy="214.02" r="2.00" fill="#b98bf5" opacity="0.50"/><circle cx="319.25" cy="207.42" r="2.00" fill="#b98bf5" opacity="0.50"/><circle cx="385.52" cy="118.47" r="2.00" fill="#b98bf5" opacity="0.50"/><circle cx="249.38" cy="232.00" r="2.00" fill="#b98bf5" opacity="0.50"/><circle cx="328.11" cy="165.24" r="2.00" fill="#b98bf5" opacity="0.50"/><circle cx="356.49" cy="211.05" r="2.00" fill="#b98bf5" opacity="0.50"/><circle cx="385.91" cy="186.74" r="2.00" fill="#b98bf5" opacity="0.50"/><circle cx="339.30" cy="130.94" r="2.00" fill="#b98bf5" opacity="0.50"/><circle cx="305.77" cy="213.46" r="2.00" fill="#b98bf5" opacity="0.50"/><circle cx="318.23" cy="184.10" r="2.00" fill="#b98bf5" opacity="0.50"/><circle cx="387.41" cy="183.15" r="2.00" fill="#b98bf5" opacity="0.50"/><circle cx="258.42" cy="228.29" r="2.00" fill="#b98bf5" opacity="0.50"/><circle cx="293.20" cy="217.75" r="2.00" fill="#b98bf5" opacity="0.50"/><circle cx="281.36" cy="207.31" r="2.00" fill="#b98bf5" opacity="0.50"/><circle cx="315.73" cy="152.50" r="2.00" fill="#b98bf5" opacity="0.50"/><circle cx="321.38" cy="213.20" r="2.00" fill="#b98bf5" opacity="0.50"/><circle cx="281.52" cy="193.61" r="2.00" fill="#b98bf5" opacity="0.50"/><circle cx="369.91" cy="227.90" r="2.00" fill="#b98bf5" opacity="0.50"/><circle cx="303.19" cy="177.59" r="2.00" fill="#b98bf5" opacity="0.50"/><circle cx="291.57" cy="170.46" r="2.00" fill="#b98bf5" opacity="0.50"/><circle cx="389.84" cy="153.91" r="2.00" fill="#b98bf5" opacity="0.50"/><circle cx="458.61" cy="113.19" r="2.00" fill="#b98bf5" opacity="0.50"/><circle cx="207.86" cy="258.60" r="2.00" fill="#b98bf5" opacity="0.50"/><circle cx="331.51" cy="209.28" r="2.00" fill="#b98bf5" opacity="0.50"/><circle cx="310.87" cy="170.60" r="2.00" fill="#b98bf5" opacity="0.50"/><circle cx="368.10" cy="172.31" r="2.00" fill="#b98bf5" opacity="0.50"/><circle cx="343.11" cy="201.69" r="2.00" fill="#b98bf5" opacity="0.50"/><circle cx="320.15" cy="229.32" r="2.00" fill="#b98bf5" opacity="0.50"/><circle cx="284.09" cy="190.12" r="2.00" fill="#b98bf5" opacity="0.50"/><circle cx="347.74" cy="223.89" r="2.00" fill="#b98bf5" opacity="0.50"/><circle cx="307.58" cy="212.07" r="2.00" fill="#b98bf5" opacity="0.50"/><circle cx="374.99" cy="120.99" r="2.00" fill="#b98bf5" opacity="0.50"/><circle cx="318.92" cy="193.00" r="2.00" fill="#b98bf5" opacity="0.50"/><circle cx="341.85" cy="147.89" r="2.00" fill="#b98bf5" opacity="0.50"/><circle cx="443.14" cy="101.36" r="2.00" fill="#b98bf5" opacity="0.50"/><circle cx="325.69" cy="198.32" r="2.00" fill="#b98bf5" opacity="0.50"/><circle cx="350.40" cy="210.33" r="2.00" fill="#b98bf5" opacity="0.50"/><circle cx="370.11" cy="171.81" r="2.00" fill="#b98bf5" opacity="0.50"/><circle cx="397.32" cy="195.56" r="2.00" fill="#b98bf5" opacity="0.50"/><circle cx="265.48" cy="272.38" r="2.00" fill="#b98bf5" opacity="0.50"/><circle cx="264.47" cy="248.59" r="2.00" fill="#b98bf5" opacity="0.50"/><circle cx="334.26" cy="183.70" r="2.00" fill="#b98bf5" opacity="0.50"/><circle cx="293.56" cy="222.91" r="2.00" fill="#b98bf5" opacity="0.50"/><circle cx="345.90" cy="215.27" r="2.00" fill="#b98bf5" opacity="0.50"/><circle cx="287.86" cy="218.48" r="2.00" fill="#b98bf5" opacity="0.50"/><circle cx="315.33" cy="182.26" r="2.00" fill="#b98bf5" opacity="0.50"/><circle cx="390.97" cy="146.10" r="2.00" fill="#b98bf5" opacity="0.50"/><circle cx="252.57" cy="195.47" r="2.00" fill="#b98bf5" opacity="0.50"/><circle cx="275.96" cy="219.33" r="2.00" fill="#b98bf5" opacity="0.50"/><circle cx="228.01" cy="295.59" r="2.00" fill="#b98bf5" opacity="0.50"/><circle cx="336.83" cy="161.63" r="2.00" fill="#b98bf5" opacity="0.50"/><circle cx="321.65" cy="177.44" r="2.00" fill="#b98bf5" opacity="0.50"/><circle cx="349.16" cy="195.81" r="2.00" fill="#b98bf5" opacity="0.50"/><circle cx="326.13" cy="144.96" r="2.00" fill="#b98bf5" opacity="0.50"/><circle cx="289.62" cy="256.04" r="2.00" fill="#b98bf5" opacity="0.50"/><circle cx="208.56" cy="260.19" r="2.00" fill="#b98bf5" opacity="0.50"/><circle cx="469.09" cy="160.74" r="2.00" fill="#b98bf5" opacity="0.50"/><circle cx="315.28" cy="207.29" r="2.00" fill="#b98bf5" opacity="0.50"/><circle cx="343.24" cy="227.73" r="2.00" fill="#b98bf5" opacity="0.50"/><circle cx="284.35" cy="214.50" r="2.00" fill="#b98bf5" opacity="0.50"/><circle cx="340.65" cy="175.34" r="2.00" fill="#b98bf5" opacity="0.50"/><circle cx="348.49" cy="169.94" r="2.00" fill="#b98bf5" opacity="0.50"/><circle cx="333.04" cy="217.69" r="2.00" fill="#b98bf5" opacity="0.50"/><circle cx="329.92" cy="184.98" r="2.00" fill="#b98bf5" opacity="0.50"/><circle cx="383.66" cy="179.89" r="2.00" fill="#b98bf5" opacity="0.50"/><circle cx="340.24" cy="179.61" r="2.00" fill="#b98bf5" opacity="0.50"/><circle cx="327.01" cy="247.43" r="2.00" fill="#b98bf5" opacity="0.50"/><circle cx="339.71" cy="224.34" r="2.00" fill="#b98bf5" opacity="0.50"/><circle cx="318.21" cy="160.42" r="2.00" fill="#b98bf5" opacity="0.50"/><circle cx="293.81" cy="222.91" r="2.00" fill="#b98bf5" opacity="0.50"/><circle cx="292.56" cy="141.21" r="2.00" fill="#b98bf5" opacity="0.50"/><circle cx="371.88" cy="176.09" r="2.00" fill="#b98bf5" opacity="0.50"/><circle cx="356.97" cy="198.65" r="2.00" fill="#b98bf5" opacity="0.50"/><circle cx="303.06" cy="231.38" r="2.00" fill="#b98bf5" opacity="0.50"/><circle cx="374.31" cy="75.32" r="2.00" fill="#b98bf5" opacity="0.50"/><circle cx="355.06" cy="150.60" r="2.00" fill="#b98bf5" opacity="0.50"/><circle cx="378.96" cy="131.61" r="2.00" fill="#b98bf5" opacity="0.50"/><circle cx="316.54" cy="167.12" r="2.00" fill="#b98bf5" opacity="0.50"/><circle cx="317.10" cy="195.63" r="2.00" fill="#b98bf5" opacity="0.50"/><circle cx="355.11" cy="207.60" r="2.00" fill="#b98bf5" opacity="0.50"/><circle cx="264.29" cy="270.79" r="2.00" fill="#b98bf5" opacity="0.50"/><circle cx="351.83" cy="141.15" r="2.00" fill="#b98bf5" opacity="0.50"/><circle cx="403.07" cy="151.92" r="2.00" fill="#b98bf5" opacity="0.50"/><circle cx="250.80" cy="260.53" r="2.00" fill="#b98bf5" opacity="0.50"/><circle cx="298.96" cy="164.05" r="2.00" fill="#b98bf5" opacity="0.50"/><circle cx="361.80" cy="213.02" r="2.00" fill="#b98bf5" opacity="0.50"/><circle cx="288.32" cy="137.42" r="2.00" fill="#b98bf5" opacity="0.50"/><circle cx="300.92" cy="203.15" r="2.00" fill="#b98bf5" opacity="0.50"/><circle cx="339.17" cy="183.43" r="2.00" fill="#b98bf5" opacity="0.50"/><circle cx="244.90" cy="186.75" r="2.00" fill="#b98bf5" opacity="0.50"/><circle cx="333.97" cy="129.39" r="2.00" fill="#b98bf5" opacity="0.50"/><circle cx="312.49" cy="160.68" r="2.00" fill="#b98bf5" opacity="0.50"/><circle cx="352.37" cy="198.15" r="2.00" fill="#b98bf5" opacity="0.50"/><circle cx="251.35" cy="210.65" r="2.00" fill="#b98bf5" opacity="0.50"/><circle cx="329.44" cy="167.76" r="2.00" fill="#b98bf5" opacity="0.50"/><circle cx="368.85" cy="206.35" r="2.00" fill="#b98bf5" opacity="0.50"/><circle cx="247.10" cy="213.47" r="2.00" fill="#b98bf5" opacity="0.50"/><circle cx="422.64" cy="150.32" r="2.00" fill="#b98bf5" opacity="0.50"/><circle cx="266.51" cy="285.69" r="2.00" fill="#b98bf5" opacity="0.50"/><circle cx="328.73" cy="180.23" r="2.00" fill="#b98bf5" opacity="0.50"/><circle cx="298.84" cy="257.83" r="2.00" fill="#b98bf5" opacity="0.50"/><circle cx="287.74" cy="221.15" r="2.00" fill="#b98bf5" opacity="0.50"/><circle cx="392.05" cy="148.15" r="2.00" fill="#b98bf5" opacity="0.50"/><circle cx="289.13" cy="237.98" r="2.00" fill="#b98bf5" opacity="0.50"/><circle cx="417.77" cy="83.38" r="2.00" fill="#b98bf5" opacity="0.50"/><circle cx="307.91" cy="254.98" r="2.00" fill="#b98bf5" opacity="0.50"/><circle cx="288.73" cy="190.71" r="2.00" fill="#b98bf5" opacity="0.50"/><circle cx="366.25" cy="159.96" r="2.00" fill="#b98bf5" opacity="0.50"/><circle cx="306.97" cy="255.66" r="2.00" fill="#b98bf5" opacity="0.50"/><circle cx="320.26" cy="203.58" r="2.00" fill="#b98bf5" opacity="0.50"/><circle cx="336.01" cy="187.24" r="2.00" fill="#b98bf5" opacity="0.50"/><circle cx="353.65" cy="170.39" r="2.00" fill="#b98bf5" opacity="0.50"/><circle cx="415.45" cy="146.40" r="2.00" fill="#b98bf5" opacity="0.50"/><circle cx="252.32" cy="217.10" r="2.00" fill="#b98bf5" opacity="0.50"/><circle cx="279.03" cy="220.50" r="2.00" fill="#b98bf5" opacity="0.50"/><circle cx="407.93" cy="150.67" r="2.00" fill="#b98bf5" opacity="0.50"/><circle cx="335.33" cy="132.08" r="2.00" fill="#b98bf5" opacity="0.50"/><circle cx="416.93" cy="162.69" r="2.00" fill="#b98bf5" opacity="0.50"/><circle cx="291.41" cy="199.84" r="2.00" fill="#b98bf5" opacity="0.50"/><circle cx="248.06" cy="290.18" r="2.00" fill="#b98bf5" opacity="0.50"/><circle cx="331.41" cy="210.94" r="2.00" fill="#b98bf5" opacity="0.50"/><circle cx="287.99" cy="276.15" r="2.00" fill="#b98bf5" opacity="0.50"/><circle cx="426.01" cy="99.01" r="2.00" fill="#b98bf5" opacity="0.50"/><circle cx="440.90" cy="137.55" r="2.00" fill="#b98bf5" opacity="0.50"/><circle cx="390.97" cy="240.11" r="2.00" fill="#b98bf5" opacity="0.50"/><circle cx="345.47" cy="136.60" r="2.00" fill="#b98bf5" opacity="0.50"/><circle cx="345.87" cy="209.67" r="2.00" fill="#b98bf5" opacity="0.50"/><circle cx="343.51" cy="215.58" r="2.00" fill="#b98bf5" opacity="0.50"/><circle cx="425.26" cy="135.33" r="2.00" fill="#b98bf5" opacity="0.50"/><circle cx="297.76" cy="236.07" r="2.00" fill="#b98bf5" opacity="0.50"/><circle cx="316.85" cy="156.50" r="2.00" fill="#b98bf5" opacity="0.50"/><circle cx="359.33" cy="184.26" r="2.00" fill="#b98bf5" opacity="0.50"/><circle cx="356.18" cy="193.34" r="2.00" fill="#b98bf5" opacity="0.50"/><circle cx="271.25" cy="205.41" r="2.00" fill="#b98bf5" opacity="0.50"/><circle cx="386.76" cy="151.37" r="2.00" fill="#b98bf5" opacity="0.50"/><circle cx="224.82" cy="249.10" r="2.00" fill="#b98bf5" opacity="0.50"/><circle cx="371.36" cy="111.95" r="2.00" fill="#b98bf5" opacity="0.50"/><circle cx="319.77" cy="216.61" r="2.00" fill="#b98bf5" opacity="0.50"/><circle cx="289.41" cy="255.14" r="2.00" fill="#b98bf5" opacity="0.50"/><circle cx="315.06" cy="193.85" r="2.00" fill="#b98bf5" opacity="0.50"/><circle cx="371.18" cy="206.06" r="2.00" fill="#b98bf5" opacity="0.50"/><circle cx="341.01" cy="172.55" r="2.00" fill="#b98bf5" opacity="0.50"/><circle cx="372.68" cy="169.48" r="2.00" fill="#b98bf5" opacity="0.50"/><circle cx="254.16" cy="216.69" r="2.00" fill="#b98bf5" opacity="0.50"/><circle cx="332.42" cy="214.36" r="2.00" fill="#b98bf5" opacity="0.50"/><circle cx="344.29" cy="213.74" r="2.00" fill="#b98bf5" opacity="0.50"/><circle cx="342.75" cy="234.58" r="2.00" fill="#b98bf5" opacity="0.50"/><circle cx="277.15" cy="271.27" r="2.00" fill="#b98bf5" opacity="0.50"/><circle cx="383.41" cy="197.27" r="2.00" fill="#b98bf5" opacity="0.50"/><circle cx="407.68" cy="172.73" r="2.00" fill="#b98bf5" opacity="0.50"/><circle cx="361.92" cy="183.32" r="2.00" fill="#b98bf5" opacity="0.50"/><circle cx="297.15" cy="212.38" r="2.00" fill="#b98bf5" opacity="0.50"/><circle cx="387.82" cy="143.54" r="2.00" fill="#b98bf5" opacity="0.50"/><circle cx="289.15" cy="242.71" r="2.00" fill="#b98bf5" opacity="0.50"/><circle cx="375.86" cy="137.82" r="2.00" fill="#b98bf5" opacity="0.50"/><circle cx="347.31" cy="189.92" r="2.00" fill="#b98bf5" opacity="0.50"/><circle cx="353.47" cy="146.06" r="2.00" fill="#b98bf5" opacity="0.50"/><circle cx="331.55" cy="211.93" r="2.00" fill="#b98bf5" opacity="0.50"/><circle cx="314.01" cy="244.58" r="2.00" fill="#b98bf5" opacity="0.50"/><circle cx="232.68" cy="300.45" r="2.00" fill="#b98bf5" opacity="0.50"/><circle cx="300.71" cy="233.50" r="2.00" fill="#b98bf5" opacity="0.50"/><circle cx="321.30" cy="230.24" r="2.00" fill="#b98bf5" opacity="0.50"/><circle cx="292.29" cy="202.04" r="2.00" fill="#b98bf5" opacity="0.50"/><circle cx="426.14" cy="130.35" r="2.00" fill="#b98bf5" opacity="0.50"/><circle cx="401.03" cy="186.46" r="2.00" fill="#b98bf5" opacity="0.50"/><circle cx="378.65" cy="204.25" r="2.00" fill="#b98bf5" opacity="0.50"/><circle cx="286.03" cy="197.84" r="2.00" fill="#b98bf5" opacity="0.50"/><circle cx="272.01" cy="195.12" r="2.00" fill="#b98bf5" opacity="0.50"/><circle cx="327.41" cy="197.73" r="2.00" fill="#b98bf5" opacity="0.50"/><circle cx="291.77" cy="248.74" r="2.00" fill="#b98bf5" opacity="0.50"/><circle cx="361.73" cy="202.51" r="2.00" fill="#b98bf5" opacity="0.50"/><circle cx="313.75" cy="176.42" r="2.00" fill="#b98bf5" opacity="0.50"/><circle cx="283.85" cy="225.61" r="2.00" fill="#b98bf5" opacity="0.50"/><circle cx="305.20" cy="191.65" r="2.00" fill="#b98bf5" opacity="0.50"/><circle cx="275.98" cy="355.85" r="2.00" fill="#b98bf5" opacity="0.50"/><circle cx="215.35" cy="264.24" r="2.00" fill="#b98bf5" opacity="0.50"/><circle cx="369.53" cy="180.89" r="2.00" fill="#b98bf5" opacity="0.50"/><circle cx="250.12" cy="206.20" r="2.00" fill="#b98bf5" opacity="0.50"/><circle cx="342.20" cy="214.67" r="2.00" fill="#b98bf5" opacity="0.50"/><circle cx="288.89" cy="222.06" r="2.00" fill="#b98bf5" opacity="0.50"/><circle cx="322.90" cy="147.42" r="2.00" fill="#b98bf5" opacity="0.50"/><circle cx="350.49" cy="208.69" r="2.00" fill="#b98bf5" opacity="0.50"/><circle cx="208.17" cy="255.44" r="2.00" fill="#b98bf5" opacity="0.50"/><circle cx="305.87" cy="199.88" r="2.00" fill="#b98bf5" opacity="0.50"/><circle cx="282.60" cy="256.34" r="2.00" fill="#b98bf5" opacity="0.50"/><circle cx="288.47" cy="229.93" r="2.00" fill="#b98bf5" opacity="0.50"/><circle cx="280.95" cy="246.56" r="2.00" fill="#b98bf5" opacity="0.50"/><circle cx="305.47" cy="192.95" r="2.00" fill="#b98bf5" opacity="0.50"/><circle cx="292.43" cy="207.75" r="2.00" fill="#b98bf5" opacity="0.50"/><circle cx="296.46" cy="225.56" r="2.00" fill="#b98bf5" opacity="0.50"/><circle cx="266.74" cy="214.80" r="2.00" fill="#b98bf5" opacity="0.50"/><circle cx="206.86" cy="270.93" r="2.00" fill="#b98bf5" opacity="0.50"/><circle cx="408.01" cy="126.06" r="2.00" fill="#b98bf5" opacity="0.50"/><circle cx="281.44" cy="238.10" r="2.00" fill="#b98bf5" opacity="0.50"/><circle cx="246.95" cy="216.18" r="2.00" fill="#b98bf5" opacity="0.50"/><circle cx="344.79" cy="155.55" r="2.00" fill="#b98bf5" opacity="0.50"/><circle cx="314.49" cy="215.77" r="2.00" fill="#b98bf5" opacity="0.50"/><circle cx="216.15" cy="237.77" r="2.00" fill="#b98bf5" opacity="0.50"/><circle cx="259.77" cy="219.90" r="2.00" fill="#b98bf5" opacity="0.50"/><circle cx="357.16" cy="167.33" r="2.00" fill="#b98bf5" opacity="0.50"/><circle cx="278.30" cy="277.62" r="2.00" fill="#b98bf5" opacity="0.50"/><circle cx="300.74" cy="257.79" r="2.00" fill="#b98bf5" opacity="0.50"/><circle cx="419.16" cy="133.54" r="2.00" fill="#b98bf5" opacity="0.50"/><circle cx="321.91" cy="219.05" r="2.00" fill="#b98bf5" opacity="0.50"/><circle cx="387.47" cy="147.50" r="2.00" fill="#b98bf5" opacity="0.50"/><circle cx="216.63" cy="256.58" r="2.00" fill="#b98bf5" opacity="0.50"/><circle cx="252.14" cy="276.84" r="2.00" fill="#b98bf5" opacity="0.50"/><circle cx="339.85" cy="209.59" r="2.00" fill="#b98bf5" opacity="0.50"/><circle cx="296.00" cy="255.06" r="2.00" fill="#b98bf5" opacity="0.50"/><circle cx="349.93" cy="137.65" r="2.00" fill="#b98bf5" opacity="0.50"/><circle cx="314.21" cy="222.35" r="2.00" fill="#b98bf5" opacity="0.50"/><circle cx="329.35" cy="148.06" r="2.00" fill="#b98bf5" opacity="0.50"/><circle cx="357.20" cy="192.34" r="2.00" fill="#b98bf5" opacity="0.50"/><circle cx="301.25" cy="183.07" r="2.00" fill="#b98bf5" opacity="0.50"/><circle cx="245.45" cy="236.50" r="2.00" fill="#b98bf5" opacity="0.50"/><circle cx="375.87" cy="193.35" r="2.00" fill="#b98bf5" opacity="0.50"/><circle cx="348.25" cy="129.78" r="2.00" fill="#b98bf5" opacity="0.50"/><circle cx="361.17" cy="152.15" r="2.00" fill="#b98bf5" opacity="0.50"/><circle cx="289.68" cy="226.85" r="2.00" fill="#b98bf5" opacity="0.50"/><circle cx="337.28" cy="201.72" r="2.00" fill="#b98bf5" opacity="0.50"/><circle cx="262.72" cy="228.38" r="2.00" fill="#b98bf5" opacity="0.50"/><circle cx="304.00" cy="215.49" r="2.00" fill="#b98bf5" opacity="0.50"/><circle cx="293.92" cy="267.74" r="2.00" fill="#b98bf5" opacity="0.50"/><circle cx="300.14" cy="214.20" r="2.00" fill="#b98bf5" opacity="0.50"/><circle cx="275.58" cy="183.13" r="2.00" fill="#b98bf5" opacity="0.50"/><circle cx="376.02" cy="150.49" r="2.00" fill="#b98bf5" opacity="0.50"/><circle cx="238.65" cy="221.81" r="2.00" fill="#b98bf5" opacity="0.50"/><circle cx="401.69" cy="128.36" r="2.00" fill="#b98bf5" opacity="0.50"/><circle cx="230.18" cy="298.12" r="2.00" fill="#b98bf5" opacity="0.50"/><circle cx="450.50" cy="138.45" r="2.00" fill="#b98bf5" opacity="0.50"/><circle cx="279.00" cy="175.72" r="2.00" fill="#b98bf5" opacity="0.50"/><circle cx="244.45" cy="177.76" r="2.00" fill="#b98bf5" opacity="0.50"/><circle cx="207.29" cy="224.79" r="2.00" fill="#b98bf5" opacity="0.50"/><circle cx="319.09" cy="231.62" r="2.00" fill="#b98bf5" opacity="0.50"/><circle cx="229.64" cy="263.82" r="2.00" fill="#b98bf5" opacity="0.50"/><circle cx="331.41" cy="163.86" r="2.00" fill="#b98bf5" opacity="0.50"/><circle cx="352.47" cy="226.54" r="2.00" fill="#b98bf5" opacity="0.50"/><circle cx="322.40" cy="183.31" r="2.00" fill="#b98bf5" opacity="0.50"/><circle cx="262.60" cy="185.05" r="2.00" fill="#b98bf5" opacity="0.50"/><circle cx="442.66" cy="104.97" r="2.00" fill="#b98bf5" opacity="0.50"/><circle cx="386.42" cy="120.81" r="2.00" fill="#b98bf5" opacity="0.50"/><circle cx="293.72" cy="221.95" r="2.00" fill="#b98bf5" opacity="0.50"/><circle cx="371.47" cy="125.39" r="2.00" fill="#b98bf5" opacity="0.50"/><circle cx="306.34" cy="228.41" r="2.00" fill="#b98bf5" opacity="0.50"/><circle cx="263.45" cy="261.12" r="2.00" fill="#b98bf5" opacity="0.50"/><circle cx="288.41" cy="226.20" r="2.00" fill="#b98bf5" opacity="0.50"/><circle cx="270.55" cy="268.32" r="2.00" fill="#b98bf5" opacity="0.50"/><circle cx="428.22" cy="131.05" r="2.00" fill="#b98bf5" opacity="0.50"/><circle cx="328.63" cy="171.58" r="2.00" fill="#b98bf5" opacity="0.50"/><circle cx="254.50" cy="215.65" r="2.00" fill="#b98bf5" opacity="0.50"/><circle cx="322.38" cy="240.78" r="2.00" fill="#b98bf5" opacity="0.50"/><circle cx="314.92" cy="198.14" r="2.00" fill="#b98bf5" opacity="0.50"/><circle cx="416.22" cy="134.28" r="2.00" fill="#b98bf5" opacity="0.50"/><circle cx="398.26" cy="181.28" r="2.00" fill="#b98bf5" opacity="0.50"/><line x1="382.0" y1="40.0" x2="382.0" y2="355.0" stroke="#f0a44f" stroke-width="2" stroke-dasharray="6 4"/><text x="388.0" y="56.0" fill="#f0a44f" font-size="12" text-anchor="start" font-weight="600">on observe δθ = z</text><polygon points="381.98,330.85 381.98,330.85 381.98,328.59 381.98,326.32 381.98,324.06 381.98,321.79 381.98,319.53 381.98,317.26 381.98,315.00 381.98,312.74 381.98,310.47 381.98,308.21 381.98,305.94 381.98,303.68 381.98,301.42 381.99,299.15 381.99,296.89 381.99,294.62 382.00,292.36 382.01,290.10 382.02,287.83 382.03,285.57 382.05,283.30 382.07,281.04 382.10,278.77 382.14,276.51 382.18,274.25 382.24,271.98 382.30,269.72 382.39,267.45 382.49,265.19 382.62,262.93 382.77,260.66 382.96,258.40 383.18,256.13 383.45,253.87 383.76,251.60 384.14,249.34 384.57,247.08 385.08,244.81 385.68,242.55 386.36,240.28 387.14,238.02 388.03,235.75 389.04,233.49 390.18,231.23 391.45,228.96 392.86,226.70 394.43,224.43 396.15,222.17 398.03,219.91 400.06,217.64 402.25,215.38 404.60,213.11 407.09,210.85 409.72,208.58 412.47,206.32 415.32,204.06 418.26,201.79 421.27,199.53 424.31,197.26 427.37,195.00 430.40,192.74 433.38,190.47 436.27,188.21 439.04,185.94 441.65,183.68 444.07,181.42 446.27,179.15 448.22,176.89 449.89,174.62 451.26,172.36 452.30,170.09 453.00,167.83 453.35,165.57 453.35,163.30 453.00,161.04 452.30,158.77 451.26,156.51 449.89,154.24 448.22,151.98 446.27,149.72 444.07,147.45 441.65,145.19 439.04,142.92 436.27,140.66 433.38,138.40 430.40,136.13 427.37,133.87 424.31,131.60 421.27,129.34 418.26,127.08 415.32,124.81 412.47,122.55 409.72,120.28 407.09,118.02 404.60,115.75 402.25,113.49 400.06,111.23 398.03,108.96 396.15,106.70 394.43,104.43 392.86,102.17 391.45,99.91 390.18,97.64 389.04,95.38 388.03,93.11 387.14,90.85 386.36,88.58 385.68,86.32 385.08,84.06 384.57,81.79 384.14,79.53 383.76,77.26 383.45,75.00 383.18,72.73 382.96,70.47 382.77,68.21 382.62,65.94 382.49,63.68 382.39,61.41 382.30,59.15 381.98,59.15" fill="#35c98b" opacity="0.15"/><polyline points="381.98,330.85 381.98,328.59 381.98,326.32 381.98,324.06 381.98,321.79 381.98,319.53 381.98,317.26 381.98,315.00 381.98,312.74 381.98,310.47 381.98,308.21 381.98,305.94 381.98,303.68 381.98,301.42 381.99,299.15 381.99,296.89 381.99,294.62 382.00,292.36 382.01,290.10 382.02,287.83 382.03,285.57 382.05,283.30 382.07,281.04 382.10,278.77 382.14,276.51 382.18,274.25 382.24,271.98 382.30,269.72 382.39,267.45 382.49,265.19 382.62,262.93 382.77,260.66 382.96,258.40 383.18,256.13 383.45,253.87 383.76,251.60 384.14,249.34 384.57,247.08 385.08,244.81 385.68,242.55 386.36,240.28 387.14,238.02 388.03,235.75 389.04,233.49 390.18,231.23 391.45,228.96 392.86,226.70 394.43,224.43 396.15,222.17 398.03,219.91 400.06,217.64 402.25,215.38 404.60,213.11 407.09,210.85 409.72,208.58 412.47,206.32 415.32,204.06 418.26,201.79 421.27,199.53 424.31,197.26 427.37,195.00 430.40,192.74 433.38,190.47 436.27,188.21 439.04,185.94 441.65,183.68 444.07,181.42 446.27,179.15 448.22,176.89 449.89,174.62 451.26,172.36 452.30,170.09 453.00,167.83 453.35,165.57 453.35,163.30 453.00,161.04 452.30,158.77 451.26,156.51 449.89,154.24 448.22,151.98 446.27,149.72 444.07,147.45 441.65,145.19 439.04,142.92 436.27,140.66 433.38,138.40 430.40,136.13 427.37,133.87 424.31,131.60 421.27,129.34 418.26,127.08 415.32,124.81 412.47,122.55 409.72,120.28 407.09,118.02 404.60,115.75 402.25,113.49 400.06,111.23 398.03,108.96 396.15,106.70 394.43,104.43 392.86,102.17 391.45,99.91 390.18,97.64 389.04,95.38 388.03,93.11 387.14,90.85 386.36,88.58 385.68,86.32 385.08,84.06 384.57,81.79 384.14,79.53 383.76,77.26 383.45,75.00 383.18,72.73 382.96,70.47 382.77,68.21 382.62,65.94 382.49,63.68 382.39,61.41 382.30,59.15" fill="none" stroke="#35c98b" stroke-width="2.6" opacity="1.00" stroke-linejoin="round" stroke-linecap="round"/><circle cx="381.98" cy="164.43" r="4.00" fill="#35c98b" opacity="1.00"/><text x="512.0" y="154.4" fill="#35c98b" font-size="12" text-anchor="start" font-weight="700">loi de δω sachant δθ = z :</text><text x="512.0" y="172.4" fill="#35c98b" font-size="11" text-anchor="start" font-weight="400" font-style="italic">recentrée, resserrée</text><text x="90.0" y="340.0" fill="#9aa6b6" font-size="11" text-anchor="start" font-weight="400">corrélation &gt; 0 : les deux erreurs penchent du même côté →</text><text x="90.0" y="356.0" fill="#9aa6b6" font-size="11" text-anchor="start" font-weight="400">observer l'une renseigne sur l'autre. C'est le moteur du filtre de Kalman.</text></svg>
