<svg viewBox="0 0 720 380" xmlns="http://www.w3.org/2000/svg" font-family="-apple-system, Segoe UI, sans-serif" role="img"><line x1="204.0" y1="40.0" x2="204.0" y2="330.0" stroke="#242b34" stroke-width="1"/><line x1="256.0" y1="40.0" x2="256.0" y2="330.0" stroke="#242b34" stroke-width="1"/><line x1="308.0" y1="40.0" x2="308.0" y2="330.0" stroke="#242b34" stroke-width="1"/><line x1="360.0" y1="40.0" x2="360.0" y2="330.0" stroke="#242b34" stroke-width="1"/><line x1="412.0" y1="40.0" x2="412.0" y2="330.0" stroke="#242b34" stroke-width="1"/><line x1="464.0" y1="40.0" x2="464.0" y2="330.0" stroke="#242b34" stroke-width="1"/><line x1="516.0" y1="40.0" x2="516.0" y2="330.0" stroke="#242b34" stroke-width="1"/><line x1="90.0" y1="299.0" x2="630.0" y2="299.0" stroke="#242b34" stroke-width="1"/><line x1="90.0" y1="247.0" x2="630.0" y2="247.0" stroke="#242b34" stroke-width="1"/><line x1="90.0" y1="195.0" x2="630.0" y2="195.0" stroke="#242b34" stroke-width="1"/><line x1="90.0" y1="143.0" x2="630.0" y2="143.0" stroke="#242b34" stroke-width="1"/><line x1="90.0" y1="91.0" x2="630.0" y2="91.0" stroke="#242b34" stroke-width="1"/><line x1="90.0" y1="195.0" x2="630.0" y2="195.0" stroke="#3a4653" stroke-width="1.3"/><line x1="360.0" y1="40.0" x2="360.0" y2="330.0" stroke="#3a4653" stroke-width="1.3"/><text x="636.0" y="199.0" fill="#9aa6b6" font-size="13" text-anchor="start" font-weight="400" font-family="JetBrains Mono, monospace">x₁</text><text x="368.0" y="48.0" fill="#9aa6b6" font-size="13" text-anchor="start" font-weight="400" font-family="JetBrains Mono, monospace">x₂</text><circle cx="290.60" cy="223.69" r="2.10" fill="#35c98b" stroke="none" stroke-width="0" opacity="0.55"/><circle cx="312.45" cy="235.51" r="2.10" fill="#35c98b" stroke="none" stroke-width="0" opacity="0.55"/><circle cx="394.95" cy="169.57" r="2.10" fill="#35c98b" stroke="none" stroke-width="0" opacity="0.55"/><circle cx="352.30" cy="181.09" r="2.10" fill="#35c98b" stroke="none" stroke-width="0" opacity="0.55"/><circle cx="447.36" cy="175.41" r="2.10" fill="#35c98b" stroke="none" stroke-width="0" opacity="0.55"/><circle cx="378.93" cy="189.68" r="2.10" fill="#35c98b" stroke="none" stroke-width="0" opacity="0.55"/><circle cx="276.75" cy="230.22" r="2.10" fill="#35c98b" stroke="none" stroke-width="0" opacity="0.55"/><circle cx="366.98" cy="225.77" r="2.10" fill="#35c98b" stroke="none" stroke-width="0" opacity="0.55"/><circle cx="381.56" cy="147.07" r="2.10" fill="#35c98b" stroke="none" stroke-width="0" opacity="0.55"/><circle cx="329.57" cy="249.80" r="2.10" fill="#35c98b" stroke="none" stroke-width="0" opacity="0.55"/><circle cx="362.52" cy="202.27" r="2.10" fill="#35c98b" stroke="none" stroke-width="0" opacity="0.55"/><circle cx="393.10" cy="162.67" r="2.10" fill="#35c98b" stroke="none" stroke-width="0" opacity="0.55"/><circle cx="329.23" cy="219.76" r="2.10" fill="#35c98b" stroke="none" stroke-width="0" opacity="0.55"/><circle cx="310.00" cy="225.97" r="2.10" fill="#35c98b" stroke="none" stroke-width="0" opacity="0.55"/><circle cx="329.50" cy="167.52" r="2.10" fill="#35c98b" stroke="none" stroke-width="0" opacity="0.55"/><circle cx="302.83" cy="220.47" r="2.10" fill="#35c98b" stroke="none" stroke-width="0" opacity="0.55"/><circle cx="260.56" cy="228.90" r="2.10" fill="#35c98b" stroke="none" stroke-width="0" opacity="0.55"/><circle cx="367.77" cy="204.37" r="2.10" fill="#35c98b" stroke="none" stroke-width="0" opacity="0.55"/><circle cx="397.09" cy="211.76" r="2.10" fill="#35c98b" stroke="none" stroke-width="0" opacity="0.55"/><circle cx="304.41" cy="219.92" r="2.10" fill="#35c98b" stroke="none" stroke-width="0" opacity="0.55"/><circle cx="289.97" cy="223.81" r="2.10" fill="#35c98b" stroke="none" stroke-width="0" opacity="0.55"/><circle cx="343.56" cy="208.75" r="2.10" fill="#35c98b" stroke="none" stroke-width="0" opacity="0.55"/><circle cx="236.93" cy="260.79" r="2.10" fill="#35c98b" stroke="none" stroke-width="0" opacity="0.55"/><circle cx="369.18" cy="234.30" r="2.10" fill="#35c98b" stroke="none" stroke-width="0" opacity="0.55"/><circle cx="311.82" cy="229.68" r="2.10" fill="#35c98b" stroke="none" stroke-width="0" opacity="0.55"/><circle cx="245.09" cy="303.73" r="2.10" fill="#35c98b" stroke="none" stroke-width="0" opacity="0.55"/><circle cx="370.32" cy="191.33" r="2.10" fill="#35c98b" stroke="none" stroke-width="0" opacity="0.55"/><circle cx="323.77" cy="186.63" r="2.10" fill="#35c98b" stroke="none" stroke-width="0" opacity="0.55"/><circle cx="348.56" cy="171.55" r="2.10" fill="#35c98b" stroke="none" stroke-width="0" opacity="0.55"/><circle cx="334.42" cy="216.08" r="2.10" fill="#35c98b" stroke="none" stroke-width="0" opacity="0.55"/><circle cx="297.43" cy="236.30" r="2.10" fill="#35c98b" stroke="none" stroke-width="0" opacity="0.55"/><circle cx="417.14" cy="147.56" r="2.10" fill="#35c98b" stroke="none" stroke-width="0" opacity="0.55"/><circle cx="269.69" cy="244.35" r="2.10" fill="#35c98b" stroke="none" stroke-width="0" opacity="0.55"/><circle cx="438.80" cy="150.77" r="2.10" fill="#35c98b" stroke="none" stroke-width="0" opacity="0.55"/><circle cx="357.22" cy="190.75" r="2.10" fill="#35c98b" stroke="none" stroke-width="0" opacity="0.55"/><circle cx="427.90" cy="199.24" r="2.10" fill="#35c98b" stroke="none" stroke-width="0" opacity="0.55"/><circle cx="358.59" cy="182.54" r="2.10" fill="#35c98b" stroke="none" stroke-width="0" opacity="0.55"/><circle cx="428.82" cy="179.46" r="2.10" fill="#35c98b" stroke="none" stroke-width="0" opacity="0.55"/><circle cx="385.83" cy="207.85" r="2.10" fill="#35c98b" stroke="none" stroke-width="0" opacity="0.55"/><circle cx="358.61" cy="174.54" r="2.10" fill="#35c98b" stroke="none" stroke-width="0" opacity="0.55"/><circle cx="252.41" cy="243.34" r="2.10" fill="#35c98b" stroke="none" stroke-width="0" opacity="0.55"/><circle cx="330.71" cy="237.29" r="2.10" fill="#35c98b" stroke="none" stroke-width="0" opacity="0.55"/><circle cx="500.67" cy="162.59" r="2.10" fill="#35c98b" stroke="none" stroke-width="0" opacity="0.55"/><circle cx="394.82" cy="171.10" r="2.10" fill="#35c98b" stroke="none" stroke-width="0" opacity="0.55"/><circle cx="418.50" cy="199.43" r="2.10" fill="#35c98b" stroke="none" stroke-width="0" opacity="0.55"/><circle cx="330.54" cy="214.66" r="2.10" fill="#35c98b" stroke="none" stroke-width="0" opacity="0.55"/><circle cx="372.85" cy="226.62" r="2.10" fill="#35c98b" stroke="none" stroke-width="0" opacity="0.55"/><circle cx="433.53" cy="169.86" r="2.10" fill="#35c98b" stroke="none" stroke-width="0" opacity="0.55"/><circle cx="376.83" cy="185.60" r="2.10" fill="#35c98b" stroke="none" stroke-width="0" opacity="0.55"/><circle cx="338.48" cy="203.21" r="2.10" fill="#35c98b" stroke="none" stroke-width="0" opacity="0.55"/><circle cx="470.16" cy="133.81" r="2.10" fill="#35c98b" stroke="none" stroke-width="0" opacity="0.55"/><circle cx="430.76" cy="123.40" r="2.10" fill="#35c98b" stroke="none" stroke-width="0" opacity="0.55"/><circle cx="344.31" cy="227.86" r="2.10" fill="#35c98b" stroke="none" stroke-width="0" opacity="0.55"/><circle cx="294.01" cy="229.08" r="2.10" fill="#35c98b" stroke="none" stroke-width="0" opacity="0.55"/><circle cx="448.24" cy="144.11" r="2.10" fill="#35c98b" stroke="none" stroke-width="0" opacity="0.55"/><circle cx="303.27" cy="241.76" r="2.10" fill="#35c98b" stroke="none" stroke-width="0" opacity="0.55"/><circle cx="305.30" cy="204.97" r="2.10" fill="#35c98b" stroke="none" stroke-width="0" opacity="0.55"/><circle cx="382.51" cy="148.79" r="2.10" fill="#35c98b" stroke="none" stroke-width="0" opacity="0.55"/><circle cx="334.79" cy="227.29" r="2.10" fill="#35c98b" stroke="none" stroke-width="0" opacity="0.55"/><circle cx="402.38" cy="171.87" r="2.10" fill="#35c98b" stroke="none" stroke-width="0" opacity="0.55"/><circle cx="287.41" cy="250.90" r="2.10" fill="#35c98b" stroke="none" stroke-width="0" opacity="0.55"/><circle cx="387.42" cy="204.51" r="2.10" fill="#35c98b" stroke="none" stroke-width="0" opacity="0.55"/><circle cx="325.30" cy="186.76" r="2.10" fill="#35c98b" stroke="none" stroke-width="0" opacity="0.55"/><circle cx="366.70" cy="192.69" r="2.10" fill="#35c98b" stroke="none" stroke-width="0" opacity="0.55"/><circle cx="287.10" cy="251.33" r="2.10" fill="#35c98b" stroke="none" stroke-width="0" opacity="0.55"/><circle cx="302.41" cy="237.47" r="2.10" fill="#35c98b" stroke="none" stroke-width="0" opacity="0.55"/><circle cx="347.83" cy="215.89" r="2.10" fill="#35c98b" stroke="none" stroke-width="0" opacity="0.55"/><circle cx="354.69" cy="220.11" r="2.10" fill="#35c98b" stroke="none" stroke-width="0" opacity="0.55"/><circle cx="358.98" cy="168.49" r="2.10" fill="#35c98b" stroke="none" stroke-width="0" opacity="0.55"/><circle cx="363.27" cy="206.73" r="2.10" fill="#35c98b" stroke="none" stroke-width="0" opacity="0.55"/><circle cx="363.13" cy="147.15" r="2.10" fill="#35c98b" stroke="none" stroke-width="0" opacity="0.55"/><circle cx="349.29" cy="199.07" r="2.10" fill="#35c98b" stroke="none" stroke-width="0" opacity="0.55"/><circle cx="395.61" cy="171.39" r="2.10" fill="#35c98b" stroke="none" stroke-width="0" opacity="0.55"/><circle cx="418.05" cy="194.66" r="2.10" fill="#35c98b" stroke="none" stroke-width="0" opacity="0.55"/><circle cx="435.87" cy="190.81" r="2.10" fill="#35c98b" stroke="none" stroke-width="0" opacity="0.55"/><circle cx="326.81" cy="232.37" r="2.10" fill="#35c98b" stroke="none" stroke-width="0" opacity="0.55"/><circle cx="356.35" cy="199.61" r="2.10" fill="#35c98b" stroke="none" stroke-width="0" opacity="0.55"/><circle cx="246.28" cy="278.38" r="2.10" fill="#35c98b" stroke="none" stroke-width="0" opacity="0.55"/><circle cx="348.06" cy="177.52" r="2.10" fill="#35c98b" stroke="none" stroke-width="0" opacity="0.55"/><circle cx="345.98" cy="232.78" r="2.10" fill="#35c98b" stroke="none" stroke-width="0" opacity="0.55"/><circle cx="322.98" cy="253.20" r="2.10" fill="#35c98b" stroke="none" stroke-width="0" opacity="0.55"/><circle cx="362.03" cy="167.35" r="2.10" fill="#35c98b" stroke="none" stroke-width="0" opacity="0.55"/><circle cx="415.92" cy="134.10" r="2.10" fill="#35c98b" stroke="none" stroke-width="0" opacity="0.55"/><circle cx="317.42" cy="216.92" r="2.10" fill="#35c98b" stroke="none" stroke-width="0" opacity="0.55"/><circle cx="393.48" cy="185.67" r="2.10" fill="#35c98b" stroke="none" stroke-width="0" opacity="0.55"/><circle cx="436.24" cy="192.86" r="2.10" fill="#35c98b" stroke="none" stroke-width="0" opacity="0.55"/><circle cx="384.78" cy="165.37" r="2.10" fill="#35c98b" stroke="none" stroke-width="0" opacity="0.55"/><circle cx="388.52" cy="168.06" r="2.10" fill="#35c98b" stroke="none" stroke-width="0" opacity="0.55"/><circle cx="355.58" cy="175.21" r="2.10" fill="#35c98b" stroke="none" stroke-width="0" opacity="0.55"/><circle cx="425.19" cy="104.77" r="2.10" fill="#35c98b" stroke="none" stroke-width="0" opacity="0.55"/><circle cx="406.87" cy="99.82" r="2.10" fill="#35c98b" stroke="none" stroke-width="0" opacity="0.55"/><circle cx="359.75" cy="163.73" r="2.10" fill="#35c98b" stroke="none" stroke-width="0" opacity="0.55"/><circle cx="310.36" cy="223.36" r="2.10" fill="#35c98b" stroke="none" stroke-width="0" opacity="0.55"/><circle cx="343.29" cy="198.42" r="2.10" fill="#35c98b" stroke="none" stroke-width="0" opacity="0.55"/><circle cx="335.42" cy="232.80" r="2.10" fill="#35c98b" stroke="none" stroke-width="0" opacity="0.55"/><circle cx="356.52" cy="260.10" r="2.10" fill="#35c98b" stroke="none" stroke-width="0" opacity="0.55"/><circle cx="324.78" cy="235.41" r="2.10" fill="#35c98b" stroke="none" stroke-width="0" opacity="0.55"/><circle cx="383.97" cy="172.29" r="2.10" fill="#35c98b" stroke="none" stroke-width="0" opacity="0.55"/><circle cx="462.10" cy="134.81" r="2.10" fill="#35c98b" stroke="none" stroke-width="0" opacity="0.55"/><circle cx="278.19" cy="250.62" r="2.10" fill="#35c98b" stroke="none" stroke-width="0" opacity="0.55"/><circle cx="390.86" cy="124.79" r="2.10" fill="#35c98b" stroke="none" stroke-width="0" opacity="0.55"/><circle cx="350.74" cy="220.02" r="2.10" fill="#35c98b" stroke="none" stroke-width="0" opacity="0.55"/><circle cx="253.58" cy="215.47" r="2.10" fill="#35c98b" stroke="none" stroke-width="0" opacity="0.55"/><circle cx="324.95" cy="228.17" r="2.10" fill="#35c98b" stroke="none" stroke-width="0" opacity="0.55"/><circle cx="339.04" cy="209.09" r="2.10" fill="#35c98b" stroke="none" stroke-width="0" opacity="0.55"/><circle cx="375.63" cy="214.47" r="2.10" fill="#35c98b" stroke="none" stroke-width="0" opacity="0.55"/><circle cx="371.95" cy="187.71" r="2.10" fill="#35c98b" stroke="none" stroke-width="0" opacity="0.55"/><circle cx="312.68" cy="216.79" r="2.10" fill="#35c98b" stroke="none" stroke-width="0" opacity="0.55"/><circle cx="398.07" cy="174.22" r="2.10" fill="#35c98b" stroke="none" stroke-width="0" opacity="0.55"/><circle cx="325.35" cy="227.80" r="2.10" fill="#35c98b" stroke="none" stroke-width="0" opacity="0.55"/><circle cx="425.23" cy="136.41" r="2.10" fill="#35c98b" stroke="none" stroke-width="0" opacity="0.55"/><circle cx="280.88" cy="234.86" r="2.10" fill="#35c98b" stroke="none" stroke-width="0" opacity="0.55"/><circle cx="368.04" cy="203.87" r="2.10" fill="#35c98b" stroke="none" stroke-width="0" opacity="0.55"/><circle cx="402.51" cy="171.49" r="2.10" fill="#35c98b" stroke="none" stroke-width="0" opacity="0.55"/><circle cx="421.41" cy="186.20" r="2.10" fill="#35c98b" stroke="none" stroke-width="0" opacity="0.55"/><circle cx="377.78" cy="163.77" r="2.10" fill="#35c98b" stroke="none" stroke-width="0" opacity="0.55"/><circle cx="427.00" cy="142.19" r="2.10" fill="#35c98b" stroke="none" stroke-width="0" opacity="0.55"/><circle cx="313.85" cy="246.38" r="2.10" fill="#35c98b" stroke="none" stroke-width="0" opacity="0.55"/><circle cx="378.12" cy="205.71" r="2.10" fill="#35c98b" stroke="none" stroke-width="0" opacity="0.55"/><circle cx="361.10" cy="189.44" r="2.10" fill="#35c98b" stroke="none" stroke-width="0" opacity="0.55"/><circle cx="356.48" cy="191.14" r="2.10" fill="#35c98b" stroke="none" stroke-width="0" opacity="0.55"/><circle cx="479.31" cy="151.03" r="2.10" fill="#35c98b" stroke="none" stroke-width="0" opacity="0.55"/><circle cx="388.93" cy="157.20" r="2.10" fill="#35c98b" stroke="none" stroke-width="0" opacity="0.55"/><circle cx="220.67" cy="250.25" r="2.10" fill="#35c98b" stroke="none" stroke-width="0" opacity="0.55"/><circle cx="423.30" cy="144.08" r="2.10" fill="#35c98b" stroke="none" stroke-width="0" opacity="0.55"/><circle cx="393.51" cy="134.65" r="2.10" fill="#35c98b" stroke="none" stroke-width="0" opacity="0.55"/><circle cx="314.09" cy="218.61" r="2.10" fill="#35c98b" stroke="none" stroke-width="0" opacity="0.55"/><circle cx="408.43" cy="152.97" r="2.10" fill="#35c98b" stroke="none" stroke-width="0" opacity="0.55"/><circle cx="377.51" cy="237.97" r="2.10" fill="#35c98b" stroke="none" stroke-width="0" opacity="0.55"/><circle cx="394.42" cy="160.46" r="2.10" fill="#35c98b" stroke="none" stroke-width="0" opacity="0.55"/><circle cx="315.00" cy="238.77" r="2.10" fill="#35c98b" stroke="none" stroke-width="0" opacity="0.55"/><circle cx="389.17" cy="169.36" r="2.10" fill="#35c98b" stroke="none" stroke-width="0" opacity="0.55"/><circle cx="303.46" cy="185.02" r="2.10" fill="#35c98b" stroke="none" stroke-width="0" opacity="0.55"/><circle cx="285.63" cy="213.88" r="2.10" fill="#35c98b" stroke="none" stroke-width="0" opacity="0.55"/><circle cx="393.46" cy="240.52" r="2.10" fill="#35c98b" stroke="none" stroke-width="0" opacity="0.55"/><circle cx="307.96" cy="219.72" r="2.10" fill="#35c98b" stroke="none" stroke-width="0" opacity="0.55"/><circle cx="306.48" cy="236.41" r="2.10" fill="#35c98b" stroke="none" stroke-width="0" opacity="0.55"/><circle cx="381.15" cy="189.71" r="2.10" fill="#35c98b" stroke="none" stroke-width="0" opacity="0.55"/><circle cx="304.97" cy="228.73" r="2.10" fill="#35c98b" stroke="none" stroke-width="0" opacity="0.55"/><circle cx="222.93" cy="310.10" r="2.10" fill="#35c98b" stroke="none" stroke-width="0" opacity="0.55"/><polyline points="461.36,125.82 460.01,124.13 458.38,122.63 456.47,121.33 454.31,120.24 451.89,119.35 449.21,118.67 446.29,118.19 443.13,117.93 439.75,117.88 436.15,118.04 432.34,118.41 428.33,118.99 424.13,119.78 419.76,120.77 415.22,121.97 410.53,123.37 405.70,124.96 400.75,126.75 395.69,128.73 390.53,130.88 385.28,133.21 379.97,135.71 374.60,138.38 369.19,141.19 363.76,144.16 358.31,147.27 352.87,150.50 347.45,153.86 342.07,157.33 336.73,160.90 331.46,164.57 326.26,168.32 321.16,172.15 316.16,176.03 311.29,179.97 306.55,183.95 301.95,187.96 297.51,191.99 293.25,196.03 289.17,200.06 285.28,204.09 281.59,208.08 278.13,212.04 274.88,215.96 271.87,219.81 269.10,223.60 266.58,227.31 264.32,230.93 262.32,234.45 260.58,237.87 259.12,241.16 257.94,244.33 257.03,247.37 256.41,250.26 256.07,253.00 256.01,255.58 256.24,258.00 256.76,260.24 257.56,262.30 258.64,264.18 259.99,265.87 261.62,267.37 263.53,268.67 265.69,269.76 268.11,270.65 270.79,271.33 273.71,271.81 276.87,272.07 280.25,272.12 283.85,271.96 287.66,271.59 291.67,271.01 295.87,270.22 300.24,269.23 304.78,268.03 309.47,266.63 314.30,265.04 319.25,263.25 324.31,261.27 329.47,259.12 334.72,256.79 340.03,254.29 345.40,251.62 350.81,248.81 356.24,245.84 361.69,242.73 367.13,239.50 372.55,236.14 377.93,232.67 383.27,229.10 388.54,225.43 393.74,221.68 398.84,217.85 403.84,213.97 408.71,210.03 413.45,206.05 418.05,202.04 422.49,198.01 426.75,193.97 430.83,189.94 434.72,185.91 438.41,181.92 441.87,177.96 445.12,174.04 448.13,170.19 450.90,166.40 453.42,162.69 455.68,159.07 457.68,155.55 459.42,152.13 460.88,148.84 462.06,145.67 462.97,142.63 463.59,139.74 463.93,137.00 463.99,134.42 463.76,132.00 463.24,129.76 462.44,127.70 461.36,125.82" fill="none" stroke="#34d1bf" stroke-width="1.6" opacity="0.80" stroke-linejoin="round" stroke-linecap="round" stroke-dasharray="5 4"/><polyline points="410.68,160.41 410.00,159.56 409.19,158.82 408.24,158.17 407.15,157.62 405.94,157.17 404.61,156.83 403.15,156.60 401.57,156.47 399.88,156.44 398.07,156.52 396.17,156.70 394.16,156.99 392.06,157.39 389.88,157.89 387.61,158.49 385.27,159.18 382.85,159.98 380.38,160.88 377.84,161.86 375.26,162.94 372.64,164.11 369.98,165.36 367.30,166.69 364.60,168.10 361.88,169.58 359.16,171.13 356.44,172.75 353.73,174.43 351.03,176.17 348.36,177.95 345.73,179.79 343.13,181.66 340.58,183.57 338.08,185.52 335.64,187.49 333.27,189.48 330.97,191.48 328.76,193.50 326.62,195.51 324.58,197.53 322.64,199.54 320.80,201.54 319.06,203.52 317.44,205.48 315.94,207.41 314.55,209.30 313.29,211.15 312.16,212.96 311.16,214.73 310.29,216.43 309.56,218.08 308.97,219.67 308.51,221.18 308.20,222.63 308.03,224.00 308.01,225.29 308.12,226.50 308.38,227.62 308.78,228.65 309.32,229.59 310.00,230.44 310.81,231.18 311.76,231.83 312.85,232.38 314.06,232.83 315.39,233.17 316.85,233.40 318.43,233.53 320.12,233.56 321.93,233.48 323.83,233.30 325.84,233.01 327.94,232.61 330.12,232.11 332.39,231.51 334.73,230.82 337.15,230.02 339.62,229.12 342.16,228.14 344.74,227.06 347.36,225.89 350.02,224.64 352.70,223.31 355.40,221.90 358.12,220.42 360.84,218.87 363.56,217.25 366.27,215.57 368.97,213.83 371.64,212.05 374.27,210.21 376.87,208.34 379.42,206.43 381.92,204.48 384.36,202.51 386.73,200.52 389.03,198.52 391.24,196.50 393.38,194.49 395.42,192.47 397.36,190.46 399.20,188.46 400.94,186.48 402.56,184.52 404.06,182.59 405.45,180.70 406.71,178.85 407.84,177.04 408.84,175.27 409.71,173.57 410.44,171.92 411.03,170.33 411.49,168.82 411.80,167.37 411.97,166.00 411.99,164.71 411.88,163.50 411.62,162.38 411.22,161.35 410.68,160.41" fill="none" stroke="#34d1bf" stroke-width="2.6" opacity="1.00" stroke-linejoin="round" stroke-linecap="round"/><circle cx="360.00" cy="195.00" r="4.00" fill="#fff" stroke="none" stroke-width="0" opacity="1.00"/><text x="350.0" y="185.0" fill="#fff" font-size="15" text-anchor="end" font-weight="700" font-family="JetBrains Mono, monospace">μ</text><line x1="360.0" y1="195.0" x2="410.7" y2="160.4" stroke="#f0a44f" stroke-width="1.4" stroke-dasharray="2 3"/><line x1="360.0" y1="195.0" x2="309.3" y2="229.6" stroke="#f0a44f" stroke-width="1.4" stroke-dasharray="2 3"/><text x="480.0" y="58.0" fill="#34d1bf" font-size="13" text-anchor="middle" font-weight="700">1σ</text><text x="525.0" y="44.0" fill="#34d1bf" font-size="12" text-anchor="middle" font-weight="600" font-style="italic">2σ</text></svg>
