<svg viewBox="0 0 720 300" xmlns="http://www.w3.org/2000/svg" font-family="-apple-system, Segoe UI, sans-serif" role="img"><line x1="175.0" y1="70.0" x2="688.0" y2="70.0" stroke="#3a4653" stroke-width="1.2"/><text x="161.0" y="66.0" fill="#34d1bf" font-size="12.5" text-anchor="end" font-weight="700">prédiction</text><text x="161.0" y="83.0" fill="#9aa6b6" font-size="10.5" text-anchor="end" font-weight="400">chaque cycle</text><line x1="175.0" y1="140.0" x2="688.0" y2="140.0" stroke="#3a4653" stroke-width="1.2"/><text x="161.0" y="136.0" fill="#3987e5" font-size="12.5" text-anchor="end" font-weight="700">capteur rapide</text><text x="161.0" y="153.0" fill="#9aa6b6" font-size="10.5" text-anchor="end" font-weight="400">100 Hz · bruité</text><line x1="175.0" y1="210.0" x2="688.0" y2="210.0" stroke="#3a4653" stroke-width="1.2"/><text x="161.0" y="206.0" fill="#c07cf0" font-size="12.5" text-anchor="end" font-weight="700">capteur lent</text><text x="161.0" y="223.0" fill="#9aa6b6" font-size="10.5" text-anchor="end" font-weight="400">4 Hz · précis</text><line x1="175.0" y1="64.0" x2="175.0" y2="76.0" stroke="#34d1bf" stroke-width="1.4"/><line x1="179.3" y1="64.0" x2="179.3" y2="76.0" stroke="#34d1bf" stroke-width="1.4"/><line x1="183.6" y1="64.0" x2="183.6" y2="76.0" stroke="#34d1bf" stroke-width="1.4"/><line x1="187.8" y1="64.0" x2="187.8" y2="76.0" stroke="#34d1bf" stroke-width="1.4"/><line x1="192.1" y1="64.0" x2="192.1" y2="76.0" stroke="#34d1bf" stroke-width="1.4"/><line x1="196.4" y1="64.0" x2="196.4" y2="76.0" stroke="#34d1bf" stroke-width="1.4"/><line x1="200.7" y1="64.0" x2="200.7" y2="76.0" stroke="#34d1bf" stroke-width="1.4"/><line x1="204.9" y1="64.0" x2="204.9" y2="76.0" stroke="#34d1bf" stroke-width="1.4"/><line x1="209.2" y1="64.0" x2="209.2" y2="76.0" stroke="#34d1bf" stroke-width="1.4"/><line x1="213.5" y1="64.0" x2="213.5" y2="76.0" stroke="#34d1bf" stroke-width="1.4"/><line x1="217.8" y1="64.0" x2="217.8" y2="76.0" stroke="#34d1bf" stroke-width="1.4"/><line x1="222.0" y1="64.0" x2="222.0" y2="76.0" stroke="#34d1bf" stroke-width="1.4"/><line x1="226.3" y1="64.0" x2="226.3" y2="76.0" stroke="#34d1bf" stroke-width="1.4"/><line x1="230.6" y1="64.0" x2="230.6" y2="76.0" stroke="#34d1bf" stroke-width="1.4"/><line x1="234.9" y1="64.0" x2="234.9" y2="76.0" stroke="#34d1bf" stroke-width="1.4"/><line x1="239.1" y1="64.0" x2="239.1" y2="76.0" stroke="#34d1bf" stroke-width="1.4"/><line x1="243.4" y1="64.0" x2="243.4" y2="76.0" stroke="#34d1bf" stroke-width="1.4"/><line x1="247.7" y1="64.0" x2="247.7" y2="76.0" stroke="#34d1bf" stroke-width="1.4"/><line x1="251.9" y1="64.0" x2="251.9" y2="76.0" stroke="#34d1bf" stroke-width="1.4"/><line x1="256.2" y1="64.0" x2="256.2" y2="76.0" stroke="#34d1bf" stroke-width="1.4"/><line x1="260.5" y1="64.0" x2="260.5" y2="76.0" stroke="#34d1bf" stroke-width="1.4"/><line x1="264.8" y1="64.0" x2="264.8" y2="76.0" stroke="#34d1bf" stroke-width="1.4"/><line x1="269.1" y1="64.0" x2="269.1" y2="76.0" stroke="#34d1bf" stroke-width="1.4"/><line x1="273.3" y1="64.0" x2="273.3" y2="76.0" stroke="#34d1bf" stroke-width="1.4"/><line x1="277.6" y1="64.0" x2="277.6" y2="76.0" stroke="#34d1bf" stroke-width="1.4"/><line x1="281.9" y1="64.0" x2="281.9" y2="76.0" stroke="#34d1bf" stroke-width="1.4"/><line x1="286.1" y1="64.0" x2="286.1" y2="76.0" stroke="#34d1bf" stroke-width="1.4"/><line x1="290.4" y1="64.0" x2="290.4" y2="76.0" stroke="#34d1bf" stroke-width="1.4"/><line x1="294.7" y1="64.0" x2="294.7" y2="76.0" stroke="#34d1bf" stroke-width="1.4"/><line x1="299.0" y1="64.0" x2="299.0" y2="76.0" stroke="#34d1bf" stroke-width="1.4"/><line x1="303.2" y1="64.0" x2="303.2" y2="76.0" stroke="#34d1bf" stroke-width="1.4"/><line x1="307.5" y1="64.0" x2="307.5" y2="76.0" stroke="#34d1bf" stroke-width="1.4"/><line x1="311.8" y1="64.0" x2="311.8" y2="76.0" stroke="#34d1bf" stroke-width="1.4"/><line x1="316.1" y1="64.0" x2="316.1" y2="76.0" stroke="#34d1bf" stroke-width="1.4"/><line x1="320.4" y1="64.0" x2="320.4" y2="76.0" stroke="#34d1bf" stroke-width="1.4"/><line x1="324.6" y1="64.0" x2="324.6" y2="76.0" stroke="#34d1bf" stroke-width="1.4"/><line x1="328.9" y1="64.0" x2="328.9" y2="76.0" stroke="#34d1bf" stroke-width="1.4"/><line x1="333.2" y1="64.0" x2="333.2" y2="76.0" stroke="#34d1bf" stroke-width="1.4"/><line x1="337.5" y1="64.0" x2="337.5" y2="76.0" stroke="#34d1bf" stroke-width="1.4"/><line x1="341.7" y1="64.0" x2="341.7" y2="76.0" stroke="#34d1bf" stroke-width="1.4"/><line x1="346.0" y1="64.0" x2="346.0" y2="76.0" stroke="#34d1bf" stroke-width="1.4"/><line x1="350.3" y1="64.0" x2="350.3" y2="76.0" stroke="#34d1bf" stroke-width="1.4"/><line x1="354.6" y1="64.0" x2="354.6" y2="76.0" stroke="#34d1bf" stroke-width="1.4"/><line x1="358.8" y1="64.0" x2="358.8" y2="76.0" stroke="#34d1bf" stroke-width="1.4"/><line x1="363.1" y1="64.0" x2="363.1" y2="76.0" stroke="#34d1bf" stroke-width="1.4"/><line x1="367.4" y1="64.0" x2="367.4" y2="76.0" stroke="#34d1bf" stroke-width="1.4"/><line x1="371.6" y1="64.0" x2="371.6" y2="76.0" stroke="#34d1bf" stroke-width="1.4"/><line x1="375.9" y1="64.0" x2="375.9" y2="76.0" stroke="#34d1bf" stroke-width="1.4"/><line x1="380.2" y1="64.0" x2="380.2" y2="76.0" stroke="#34d1bf" stroke-width="1.4"/><line x1="384.5" y1="64.0" x2="384.5" y2="76.0" stroke="#34d1bf" stroke-width="1.4"/><line x1="388.8" y1="64.0" x2="388.8" y2="76.0" stroke="#34d1bf" stroke-width="1.4"/><line x1="393.0" y1="64.0" x2="393.0" y2="76.0" stroke="#34d1bf" stroke-width="1.4"/><line x1="397.3" y1="64.0" x2="397.3" y2="76.0" stroke="#34d1bf" stroke-width="1.4"/><line x1="401.6" y1="64.0" x2="401.6" y2="76.0" stroke="#34d1bf" stroke-width="1.4"/><line x1="405.9" y1="64.0" x2="405.9" y2="76.0" stroke="#34d1bf" stroke-width="1.4"/><line x1="410.1" y1="64.0" x2="410.1" y2="76.0" stroke="#34d1bf" stroke-width="1.4"/><line x1="414.4" y1="64.0" x2="414.4" y2="76.0" stroke="#34d1bf" stroke-width="1.4"/><line x1="418.7" y1="64.0" x2="418.7" y2="76.0" stroke="#34d1bf" stroke-width="1.4"/><line x1="423.0" y1="64.0" x2="423.0" y2="76.0" stroke="#34d1bf" stroke-width="1.4"/><line x1="427.2" y1="64.0" x2="427.2" y2="76.0" stroke="#34d1bf" stroke-width="1.4"/><line x1="431.5" y1="64.0" x2="431.5" y2="76.0" stroke="#34d1bf" stroke-width="1.4"/><line x1="435.8" y1="64.0" x2="435.8" y2="76.0" stroke="#34d1bf" stroke-width="1.4"/><line x1="440.1" y1="64.0" x2="440.1" y2="76.0" stroke="#34d1bf" stroke-width="1.4"/><line x1="444.3" y1="64.0" x2="444.3" y2="76.0" stroke="#34d1bf" stroke-width="1.4"/><line x1="448.6" y1="64.0" x2="448.6" y2="76.0" stroke="#34d1bf" stroke-width="1.4"/><line x1="452.9" y1="64.0" x2="452.9" y2="76.0" stroke="#34d1bf" stroke-width="1.4"/><line x1="457.2" y1="64.0" x2="457.2" y2="76.0" stroke="#34d1bf" stroke-width="1.4"/><line x1="461.4" y1="64.0" x2="461.4" y2="76.0" stroke="#34d1bf" stroke-width="1.4"/><line x1="465.7" y1="64.0" x2="465.7" y2="76.0" stroke="#34d1bf" stroke-width="1.4"/><line x1="470.0" y1="64.0" x2="470.0" y2="76.0" stroke="#34d1bf" stroke-width="1.4"/><line x1="474.2" y1="64.0" x2="474.2" y2="76.0" stroke="#34d1bf" stroke-width="1.4"/><line x1="478.5" y1="64.0" x2="478.5" y2="76.0" stroke="#34d1bf" stroke-width="1.4"/><line x1="482.8" y1="64.0" x2="482.8" y2="76.0" stroke="#34d1bf" stroke-width="1.4"/><line x1="487.1" y1="64.0" x2="487.1" y2="76.0" stroke="#34d1bf" stroke-width="1.4"/><line x1="491.4" y1="64.0" x2="491.4" y2="76.0" stroke="#34d1bf" stroke-width="1.4"/><line x1="495.6" y1="64.0" x2="495.6" y2="76.0" stroke="#34d1bf" stroke-width="1.4"/><line x1="499.9" y1="64.0" x2="499.9" y2="76.0" stroke="#34d1bf" stroke-width="1.4"/><line x1="504.2" y1="64.0" x2="504.2" y2="76.0" stroke="#34d1bf" stroke-width="1.4"/><line x1="508.4" y1="64.0" x2="508.4" y2="76.0" stroke="#34d1bf" stroke-width="1.4"/><line x1="512.7" y1="64.0" x2="512.7" y2="76.0" stroke="#34d1bf" stroke-width="1.4"/><line x1="517.0" y1="64.0" x2="517.0" y2="76.0" stroke="#34d1bf" stroke-width="1.4"/><line x1="521.3" y1="64.0" x2="521.3" y2="76.0" stroke="#34d1bf" stroke-width="1.4"/><line x1="525.6" y1="64.0" x2="525.6" y2="76.0" stroke="#34d1bf" stroke-width="1.4"/><line x1="529.8" y1="64.0" x2="529.8" y2="76.0" stroke="#34d1bf" stroke-width="1.4"/><line x1="534.1" y1="64.0" x2="534.1" y2="76.0" stroke="#34d1bf" stroke-width="1.4"/><line x1="538.4" y1="64.0" x2="538.4" y2="76.0" stroke="#34d1bf" stroke-width="1.4"/><line x1="542.6" y1="64.0" x2="542.6" y2="76.0" stroke="#34d1bf" stroke-width="1.4"/><line x1="546.9" y1="64.0" x2="546.9" y2="76.0" stroke="#34d1bf" stroke-width="1.4"/><line x1="551.2" y1="64.0" x2="551.2" y2="76.0" stroke="#34d1bf" stroke-width="1.4"/><line x1="555.5" y1="64.0" x2="555.5" y2="76.0" stroke="#34d1bf" stroke-width="1.4"/><line x1="559.8" y1="64.0" x2="559.8" y2="76.0" stroke="#34d1bf" stroke-width="1.4"/><line x1="564.0" y1="64.0" x2="564.0" y2="76.0" stroke="#34d1bf" stroke-width="1.4"/><line x1="568.3" y1="64.0" x2="568.3" y2="76.0" stroke="#34d1bf" stroke-width="1.4"/><line x1="572.6" y1="64.0" x2="572.6" y2="76.0" stroke="#34d1bf" stroke-width="1.4"/><line x1="576.9" y1="64.0" x2="576.9" y2="76.0" stroke="#34d1bf" stroke-width="1.4"/><line x1="581.1" y1="64.0" x2="581.1" y2="76.0" stroke="#34d1bf" stroke-width="1.4"/><line x1="585.4" y1="64.0" x2="585.4" y2="76.0" stroke="#34d1bf" stroke-width="1.4"/><line x1="589.7" y1="64.0" x2="589.7" y2="76.0" stroke="#34d1bf" stroke-width="1.4"/><line x1="594.0" y1="64.0" x2="594.0" y2="76.0" stroke="#34d1bf" stroke-width="1.4"/><line x1="598.2" y1="64.0" x2="598.2" y2="76.0" stroke="#34d1bf" stroke-width="1.4"/><line x1="602.5" y1="64.0" x2="602.5" y2="76.0" stroke="#34d1bf" stroke-width="1.4"/><line x1="606.8" y1="64.0" x2="606.8" y2="76.0" stroke="#34d1bf" stroke-width="1.4"/><line x1="611.1" y1="64.0" x2="611.1" y2="76.0" stroke="#34d1bf" stroke-width="1.4"/><line x1="615.3" y1="64.0" x2="615.3" y2="76.0" stroke="#34d1bf" stroke-width="1.4"/><line x1="619.6" y1="64.0" x2="619.6" y2="76.0" stroke="#34d1bf" stroke-width="1.4"/><line x1="623.9" y1="64.0" x2="623.9" y2="76.0" stroke="#34d1bf" stroke-width="1.4"/><line x1="628.2" y1="64.0" x2="628.2" y2="76.0" stroke="#34d1bf" stroke-width="1.4"/><line x1="632.4" y1="64.0" x2="632.4" y2="76.0" stroke="#34d1bf" stroke-width="1.4"/><line x1="636.7" y1="64.0" x2="636.7" y2="76.0" stroke="#34d1bf" stroke-width="1.4"/><line x1="641.0" y1="64.0" x2="641.0" y2="76.0" stroke="#34d1bf" stroke-width="1.4"/><line x1="645.2" y1="64.0" x2="645.2" y2="76.0" stroke="#34d1bf" stroke-width="1.4"/><line x1="649.5" y1="64.0" x2="649.5" y2="76.0" stroke="#34d1bf" stroke-width="1.4"/><line x1="653.8" y1="64.0" x2="653.8" y2="76.0" stroke="#34d1bf" stroke-width="1.4"/><line x1="658.1" y1="64.0" x2="658.1" y2="76.0" stroke="#34d1bf" stroke-width="1.4"/><line x1="662.4" y1="64.0" x2="662.4" y2="76.0" stroke="#34d1bf" stroke-width="1.4"/><line x1="666.6" y1="64.0" x2="666.6" y2="76.0" stroke="#34d1bf" stroke-width="1.4"/><line x1="670.9" y1="64.0" x2="670.9" y2="76.0" stroke="#34d1bf" stroke-width="1.4"/><line x1="675.2" y1="64.0" x2="675.2" y2="76.0" stroke="#34d1bf" stroke-width="1.4"/><line x1="679.5" y1="64.0" x2="679.5" y2="76.0" stroke="#34d1bf" stroke-width="1.4"/><line x1="683.7" y1="64.0" x2="683.7" y2="76.0" stroke="#34d1bf" stroke-width="1.4"/><line x1="688.0" y1="64.0" x2="688.0" y2="76.0" stroke="#34d1bf" stroke-width="1.4"/><circle cx="175.00" cy="140.00" r="2.40" fill="#3987e5" opacity="1.00" stroke="none" stroke-width="0"/><circle cx="179.28" cy="140.00" r="2.40" fill="#3987e5" opacity="1.00" stroke="none" stroke-width="0"/><circle cx="183.55" cy="140.00" r="2.40" fill="#3987e5" opacity="1.00" stroke="none" stroke-width="0"/><circle cx="187.82" cy="140.00" r="2.40" fill="#3987e5" opacity="1.00" stroke="none" stroke-width="0"/><circle cx="192.10" cy="140.00" r="2.40" fill="#3987e5" opacity="1.00" stroke="none" stroke-width="0"/><circle cx="196.38" cy="140.00" r="2.40" fill="#3987e5" opacity="1.00" stroke="none" stroke-width="0"/><circle cx="200.65" cy="140.00" r="2.40" fill="#3987e5" opacity="1.00" stroke="none" stroke-width="0"/><circle cx="204.93" cy="140.00" r="2.40" fill="#3987e5" opacity="1.00" stroke="none" stroke-width="0"/><circle cx="209.20" cy="140.00" r="2.40" fill="#3987e5" opacity="1.00" stroke="none" stroke-width="0"/><circle cx="213.47" cy="140.00" r="2.40" fill="#3987e5" opacity="1.00" stroke="none" stroke-width="0"/><circle cx="217.75" cy="140.00" r="2.40" fill="#3987e5" opacity="1.00" stroke="none" stroke-width="0"/><circle cx="222.03" cy="140.00" r="2.40" fill="#3987e5" opacity="1.00" stroke="none" stroke-width="0"/><circle cx="226.30" cy="140.00" r="2.40" fill="#3987e5" opacity="1.00" stroke="none" stroke-width="0"/><circle cx="230.57" cy="140.00" r="2.40" fill="#3987e5" opacity="1.00" stroke="none" stroke-width="0"/><circle cx="234.85" cy="140.00" r="2.40" fill="#3987e5" opacity="1.00" stroke="none" stroke-width="0"/><circle cx="239.12" cy="140.00" r="2.40" fill="#3987e5" opacity="1.00" stroke="none" stroke-width="0"/><circle cx="243.40" cy="140.00" r="2.40" fill="#3987e5" opacity="1.00" stroke="none" stroke-width="0"/><circle cx="247.68" cy="140.00" r="2.40" fill="#3987e5" opacity="1.00" stroke="none" stroke-width="0"/><circle cx="251.95" cy="140.00" r="2.40" fill="#3987e5" opacity="1.00" stroke="none" stroke-width="0"/><circle cx="256.23" cy="140.00" r="2.40" fill="#3987e5" opacity="1.00" stroke="none" stroke-width="0"/><circle cx="260.50" cy="140.00" r="2.40" fill="#3987e5" opacity="1.00" stroke="none" stroke-width="0"/><circle cx="264.78" cy="140.00" r="2.40" fill="#3987e5" opacity="1.00" stroke="none" stroke-width="0"/><circle cx="269.05" cy="140.00" r="2.40" fill="#3987e5" opacity="1.00" stroke="none" stroke-width="0"/><circle cx="273.33" cy="140.00" r="2.40" fill="#3987e5" opacity="1.00" stroke="none" stroke-width="0"/><circle cx="277.60" cy="140.00" r="2.40" fill="#3987e5" opacity="1.00" stroke="none" stroke-width="0"/><circle cx="281.88" cy="140.00" r="2.40" fill="#3987e5" opacity="1.00" stroke="none" stroke-width="0"/><circle cx="286.15" cy="140.00" r="2.40" fill="#3987e5" opacity="1.00" stroke="none" stroke-width="0"/><circle cx="290.43" cy="140.00" r="2.40" fill="#3987e5" opacity="1.00" stroke="none" stroke-width="0"/><circle cx="294.70" cy="140.00" r="2.40" fill="#3987e5" opacity="1.00" stroke="none" stroke-width="0"/><circle cx="298.98" cy="140.00" r="2.40" fill="#3987e5" opacity="1.00" stroke="none" stroke-width="0"/><circle cx="303.25" cy="140.00" r="2.40" fill="#3987e5" opacity="1.00" stroke="none" stroke-width="0"/><circle cx="307.53" cy="140.00" r="2.40" fill="#3987e5" opacity="1.00" stroke="none" stroke-width="0"/><circle cx="311.80" cy="140.00" r="2.40" fill="#3987e5" opacity="1.00" stroke="none" stroke-width="0"/><circle cx="316.08" cy="140.00" r="2.40" fill="#3987e5" opacity="1.00" stroke="none" stroke-width="0"/><circle cx="320.35" cy="140.00" r="2.40" fill="#3987e5" opacity="1.00" stroke="none" stroke-width="0"/><circle cx="324.63" cy="140.00" r="2.40" fill="#3987e5" opacity="1.00" stroke="none" stroke-width="0"/><circle cx="328.90" cy="140.00" r="2.40" fill="#3987e5" opacity="1.00" stroke="none" stroke-width="0"/><circle cx="333.18" cy="140.00" r="2.40" fill="#3987e5" opacity="1.00" stroke="none" stroke-width="0"/><circle cx="337.45" cy="140.00" r="2.40" fill="#3987e5" opacity="1.00" stroke="none" stroke-width="0"/><circle cx="341.73" cy="140.00" r="2.40" fill="#3987e5" opacity="1.00" stroke="none" stroke-width="0"/><circle cx="346.00" cy="140.00" r="2.40" fill="#3987e5" opacity="1.00" stroke="none" stroke-width="0"/><circle cx="350.28" cy="140.00" r="2.40" fill="#3987e5" opacity="1.00" stroke="none" stroke-width="0"/><circle cx="354.55" cy="140.00" r="2.40" fill="#3987e5" opacity="1.00" stroke="none" stroke-width="0"/><circle cx="358.83" cy="140.00" r="2.40" fill="#3987e5" opacity="1.00" stroke="none" stroke-width="0"/><circle cx="363.10" cy="140.00" r="2.40" fill="#3987e5" opacity="1.00" stroke="none" stroke-width="0"/><circle cx="367.38" cy="140.00" r="2.40" fill="#3987e5" opacity="1.00" stroke="none" stroke-width="0"/><circle cx="371.65" cy="140.00" r="2.40" fill="#3987e5" opacity="1.00" stroke="none" stroke-width="0"/><circle cx="375.92" cy="140.00" r="2.40" fill="#3987e5" opacity="1.00" stroke="none" stroke-width="0"/><circle cx="380.20" cy="140.00" r="2.40" fill="#3987e5" opacity="1.00" stroke="none" stroke-width="0"/><circle cx="384.47" cy="140.00" r="2.40" fill="#3987e5" opacity="1.00" stroke="none" stroke-width="0"/><circle cx="388.75" cy="140.00" r="2.40" fill="#3987e5" opacity="1.00" stroke="none" stroke-width="0"/><circle cx="461.42" cy="140.00" r="2.40" fill="#3987e5" opacity="1.00" stroke="none" stroke-width="0"/><circle cx="465.70" cy="140.00" r="2.40" fill="#3987e5" opacity="1.00" stroke="none" stroke-width="0"/><circle cx="469.97" cy="140.00" r="2.40" fill="#3987e5" opacity="1.00" stroke="none" stroke-width="0"/><circle cx="474.25" cy="140.00" r="2.40" fill="#3987e5" opacity="1.00" stroke="none" stroke-width="0"/><circle cx="478.52" cy="140.00" r="2.40" fill="#3987e5" opacity="1.00" stroke="none" stroke-width="0"/><circle cx="482.80" cy="140.00" r="2.40" fill="#3987e5" opacity="1.00" stroke="none" stroke-width="0"/><circle cx="487.07" cy="140.00" r="2.40" fill="#3987e5" opacity="1.00" stroke="none" stroke-width="0"/><circle cx="491.35" cy="140.00" r="2.40" fill="#3987e5" opacity="1.00" stroke="none" stroke-width="0"/><circle cx="495.62" cy="140.00" r="2.40" fill="#3987e5" opacity="1.00" stroke="none" stroke-width="0"/><circle cx="499.90" cy="140.00" r="2.40" fill="#3987e5" opacity="1.00" stroke="none" stroke-width="0"/><circle cx="504.17" cy="140.00" r="2.40" fill="#3987e5" opacity="1.00" stroke="none" stroke-width="0"/><circle cx="508.45" cy="140.00" r="2.40" fill="#3987e5" opacity="1.00" stroke="none" stroke-width="0"/><circle cx="512.72" cy="140.00" r="2.40" fill="#3987e5" opacity="1.00" stroke="none" stroke-width="0"/><circle cx="517.00" cy="140.00" r="2.40" fill="#3987e5" opacity="1.00" stroke="none" stroke-width="0"/><circle cx="521.27" cy="140.00" r="2.40" fill="#3987e5" opacity="1.00" stroke="none" stroke-width="0"/><circle cx="525.55" cy="140.00" r="2.40" fill="#3987e5" opacity="1.00" stroke="none" stroke-width="0"/><circle cx="529.82" cy="140.00" r="2.40" fill="#3987e5" opacity="1.00" stroke="none" stroke-width="0"/><circle cx="534.10" cy="140.00" r="2.40" fill="#3987e5" opacity="1.00" stroke="none" stroke-width="0"/><circle cx="538.37" cy="140.00" r="2.40" fill="#3987e5" opacity="1.00" stroke="none" stroke-width="0"/><circle cx="542.65" cy="140.00" r="2.40" fill="#3987e5" opacity="1.00" stroke="none" stroke-width="0"/><circle cx="546.92" cy="140.00" r="2.40" fill="#3987e5" opacity="1.00" stroke="none" stroke-width="0"/><circle cx="551.20" cy="140.00" r="2.40" fill="#3987e5" opacity="1.00" stroke="none" stroke-width="0"/><circle cx="555.47" cy="140.00" r="2.40" fill="#3987e5" opacity="1.00" stroke="none" stroke-width="0"/><circle cx="559.75" cy="140.00" r="2.40" fill="#3987e5" opacity="1.00" stroke="none" stroke-width="0"/><circle cx="564.02" cy="140.00" r="2.40" fill="#3987e5" opacity="1.00" stroke="none" stroke-width="0"/><circle cx="568.30" cy="140.00" r="2.40" fill="#3987e5" opacity="1.00" stroke="none" stroke-width="0"/><circle cx="572.57" cy="140.00" r="2.40" fill="#3987e5" opacity="1.00" stroke="none" stroke-width="0"/><circle cx="576.85" cy="140.00" r="2.40" fill="#3987e5" opacity="1.00" stroke="none" stroke-width="0"/><circle cx="581.12" cy="140.00" r="2.40" fill="#3987e5" opacity="1.00" stroke="none" stroke-width="0"/><circle cx="585.40" cy="140.00" r="2.40" fill="#3987e5" opacity="1.00" stroke="none" stroke-width="0"/><circle cx="589.67" cy="140.00" r="2.40" fill="#3987e5" opacity="1.00" stroke="none" stroke-width="0"/><circle cx="593.95" cy="140.00" r="2.40" fill="#3987e5" opacity="1.00" stroke="none" stroke-width="0"/><circle cx="598.22" cy="140.00" r="2.40" fill="#3987e5" opacity="1.00" stroke="none" stroke-width="0"/><circle cx="602.50" cy="140.00" r="2.40" fill="#3987e5" opacity="1.00" stroke="none" stroke-width="0"/><circle cx="606.77" cy="140.00" r="2.40" fill="#3987e5" opacity="1.00" stroke="none" stroke-width="0"/><circle cx="611.05" cy="140.00" r="2.40" fill="#3987e5" opacity="1.00" stroke="none" stroke-width="0"/><circle cx="615.32" cy="140.00" r="2.40" fill="#3987e5" opacity="1.00" stroke="none" stroke-width="0"/><circle cx="619.60" cy="140.00" r="2.40" fill="#3987e5" opacity="1.00" stroke="none" stroke-width="0"/><circle cx="623.87" cy="140.00" r="2.40" fill="#3987e5" opacity="1.00" stroke="none" stroke-width="0"/><circle cx="628.15" cy="140.00" r="2.40" fill="#3987e5" opacity="1.00" stroke="none" stroke-width="0"/><circle cx="632.42" cy="140.00" r="2.40" fill="#3987e5" opacity="1.00" stroke="none" stroke-width="0"/><circle cx="636.70" cy="140.00" r="2.40" fill="#3987e5" opacity="1.00" stroke="none" stroke-width="0"/><circle cx="640.97" cy="140.00" r="2.40" fill="#3987e5" opacity="1.00" stroke="none" stroke-width="0"/><circle cx="645.25" cy="140.00" r="2.40" fill="#3987e5" opacity="1.00" stroke="none" stroke-width="0"/><circle cx="649.52" cy="140.00" r="2.40" fill="#3987e5" opacity="1.00" stroke="none" stroke-width="0"/><circle cx="653.80" cy="140.00" r="2.40" fill="#3987e5" opacity="1.00" stroke="none" stroke-width="0"/><circle cx="658.07" cy="140.00" r="2.40" fill="#3987e5" opacity="1.00" stroke="none" stroke-width="0"/><circle cx="662.35" cy="140.00" r="2.40" fill="#3987e5" opacity="1.00" stroke="none" stroke-width="0"/><circle cx="666.62" cy="140.00" r="2.40" fill="#3987e5" opacity="1.00" stroke="none" stroke-width="0"/><circle cx="670.90" cy="140.00" r="2.40" fill="#3987e5" opacity="1.00" stroke="none" stroke-width="0"/><circle cx="675.17" cy="140.00" r="2.40" fill="#3987e5" opacity="1.00" stroke="none" stroke-width="0"/><circle cx="679.45" cy="140.00" r="2.40" fill="#3987e5" opacity="1.00" stroke="none" stroke-width="0"/><circle cx="683.72" cy="140.00" r="2.40" fill="#3987e5" opacity="1.00" stroke="none" stroke-width="0"/><circle cx="688.00" cy="140.00" r="2.40" fill="#3987e5" opacity="1.00" stroke="none" stroke-width="0"/><rect x="388.8" y="128.0" width="68.4" height="24.0" rx="5" fill="#2a1f14" stroke="#f4c15b" stroke-width="1.2" opacity="0.50"/><text x="422.9" y="120.0" fill="#f4c15b" font-size="10.5" text-anchor="middle" font-weight="400">absent (panne / trame perdue)</text><circle cx="175.00" cy="210.00" r="3.60" fill="#c07cf0" opacity="1.00" stroke="none" stroke-width="0"/><circle cx="196.38" cy="210.00" r="3.60" fill="#c07cf0" opacity="1.00" stroke="none" stroke-width="0"/><circle cx="217.75" cy="210.00" r="3.60" fill="#c07cf0" opacity="1.00" stroke="none" stroke-width="0"/><circle cx="239.12" cy="210.00" r="3.60" fill="#c07cf0" opacity="1.00" stroke="none" stroke-width="0"/><circle cx="260.50" cy="210.00" r="3.60" fill="#c07cf0" opacity="1.00" stroke="none" stroke-width="0"/><circle cx="281.88" cy="210.00" r="3.60" fill="#c07cf0" opacity="1.00" stroke="none" stroke-width="0"/><circle cx="303.25" cy="210.00" r="3.60" fill="#c07cf0" opacity="1.00" stroke="none" stroke-width="0"/><circle cx="324.62" cy="210.00" r="3.60" fill="#c07cf0" opacity="1.00" stroke="none" stroke-width="0"/><circle cx="346.00" cy="210.00" r="3.60" fill="#c07cf0" opacity="1.00" stroke="none" stroke-width="0"/><circle cx="367.38" cy="210.00" r="3.60" fill="#c07cf0" opacity="1.00" stroke="none" stroke-width="0"/><circle cx="388.75" cy="210.00" r="3.60" fill="#c07cf0" opacity="1.00" stroke="none" stroke-width="0"/><circle cx="410.12" cy="210.00" r="3.60" fill="#c07cf0" opacity="1.00" stroke="none" stroke-width="0"/><circle cx="431.50" cy="210.00" r="3.60" fill="#c07cf0" opacity="1.00" stroke="none" stroke-width="0"/><circle cx="452.88" cy="210.00" r="3.60" fill="#c07cf0" opacity="1.00" stroke="none" stroke-width="0"/><circle cx="474.25" cy="210.00" r="3.60" fill="#c07cf0" opacity="1.00" stroke="none" stroke-width="0"/><circle cx="495.62" cy="210.00" r="3.60" fill="#c07cf0" opacity="1.00" stroke="none" stroke-width="0"/><circle cx="517.00" cy="210.00" r="3.60" fill="#c07cf0" opacity="1.00" stroke="none" stroke-width="0"/><circle cx="538.38" cy="210.00" r="3.60" fill="#c07cf0" opacity="1.00" stroke="none" stroke-width="0"/><circle cx="559.75" cy="210.00" r="3.60" fill="#c07cf0" opacity="1.00" stroke="none" stroke-width="0"/><circle cx="581.12" cy="210.00" r="3.60" fill="#c07cf0" opacity="1.00" stroke="none" stroke-width="0"/><circle cx="602.50" cy="210.00" r="3.60" fill="#c07cf0" opacity="1.00" stroke="none" stroke-width="0"/><circle cx="623.88" cy="210.00" r="3.60" fill="#c07cf0" opacity="1.00" stroke="none" stroke-width="0"/><circle cx="645.25" cy="210.00" r="3.60" fill="#c07cf0" opacity="1.00" stroke="none" stroke-width="0"/><circle cx="666.62" cy="210.00" r="3.60" fill="#c07cf0" opacity="1.00" stroke="none" stroke-width="0"/><circle cx="688.00" cy="210.00" r="3.60" fill="#c07cf0" opacity="1.00" stroke="none" stroke-width="0"/><line x1="175.0" y1="250.0" x2="175.0" y2="256.0" stroke="#3a4653" stroke-width="1"/><text x="175.0" y="272.0" fill="#9aa6b6" font-size="11" text-anchor="middle" font-weight="400" font-family="JetBrains Mono, monospace">0</text><line x1="260.5" y1="250.0" x2="260.5" y2="256.0" stroke="#3a4653" stroke-width="1"/><text x="260.5" y="272.0" fill="#9aa6b6" font-size="11" text-anchor="middle" font-weight="400" font-family="JetBrains Mono, monospace">1</text><line x1="346.0" y1="250.0" x2="346.0" y2="256.0" stroke="#3a4653" stroke-width="1"/><text x="346.0" y="272.0" fill="#9aa6b6" font-size="11" text-anchor="middle" font-weight="400" font-family="JetBrains Mono, monospace">2</text><line x1="431.5" y1="250.0" x2="431.5" y2="256.0" stroke="#3a4653" stroke-width="1"/><text x="431.5" y="272.0" fill="#9aa6b6" font-size="11" text-anchor="middle" font-weight="400" font-family="JetBrains Mono, monospace">3</text><line x1="517.0" y1="250.0" x2="517.0" y2="256.0" stroke="#3a4653" stroke-width="1"/><text x="517.0" y="272.0" fill="#9aa6b6" font-size="11" text-anchor="middle" font-weight="400" font-family="JetBrains Mono, monospace">4</text><line x1="602.5" y1="250.0" x2="602.5" y2="256.0" stroke="#3a4653" stroke-width="1"/><text x="602.5" y="272.0" fill="#9aa6b6" font-size="11" text-anchor="middle" font-weight="400" font-family="JetBrains Mono, monospace">5</text><line x1="688.0" y1="250.0" x2="688.0" y2="256.0" stroke="#3a4653" stroke-width="1"/><text x="688.0" y="272.0" fill="#9aa6b6" font-size="11" text-anchor="middle" font-weight="400" font-family="JetBrains Mono, monospace">6</text><text x="431.5" y="292.0" fill="#9aa6b6" font-size="12" text-anchor="middle" font-weight="400">temps (s)</text><text x="175.0" y="44.0" fill="#34d1bf" font-size="12.5" text-anchor="start" font-weight="600">prédire TOUJOURS · corriger SI une mesure est présente</text></svg>
